<?xml version="1.0" standalone="no"?>
<!DOCTYPE svg PUBLIC "-//W3C//DTD SVG 20010904//EN"
 "http://www.w3.org/TR/2001/REC-SVG-20010904/DTD/svg10.dtd">
<svg version="1.0" xmlns="http://www.w3.org/2000/svg"
 width="992.000000pt" height="992.000000pt" viewBox="0 0 992.000000 992.000000"
 preserveAspectRatio="xMidYMid meet">

<g transform="translate(0.000000,992.000000) scale(0.100000,-0.100000)"
fill="#000000" stroke="none">
<path d="M4685 9914 c-987 -63 -1910 -398 -2690 -979 -369 -274 -736 -641
-1010 -1010 -538 -723 -862 -1558 -962 -2475 -25 -232 -25 -748 0 -980 111
-1020 495 -1927 1148 -2710 133 -160 429 -456 589 -589 783 -653 1690 -1037
2710 -1148 232 -25 748 -25 980 0 1020 111 1927 495 2710 1148 160 133 456
429 589 589 653 783 1037 1690 1148 2710 13 124 17 246 17 490 0 244 -4 366
-17 490 -111 1020 -495 1927 -1148 2710 -133 160 -429 456 -589 589 -780 651
-1696 1040 -2700 1146 -147 16 -637 28 -775 19z"/>
</g>
</svg>
