<?xml version="1.0" encoding="UTF-8" standalone="no" ?>
<!DOCTYPE svg PUBLIC "-//W3C//DTD SVG 1.1//EN" "http://www.w3.org/Graphics/SVG/1.1/DTD/svg11.dtd">
<svg xmlns="http://www.w3.org/2000/svg" xmlns:xlink="http://www.w3.org/1999/xlink" version="1.1" width="9" height="9" viewBox="0 0 50 50" xml:space="preserve">
<desc>Created with Fabric.js 5.3.0</desc>
<defs>
</defs>
<g transform="matrix(9.22 0 0 9.22 25 25)" id="Ldrg6cZgTHWcB4yH4p4K1"  >
<path style="stroke: rgb(241,67,15); stroke-width: 0; stroke-dasharray: none; stroke-linecap: butt; stroke-dashoffset: 0; stroke-linejoin: miter; stroke-miterlimit: 4; fill: rgb(188,188,188); fill-rule: nonzero; opacity: 1;"  transform=" translate(0, 0)" d="M -2.7115 -2.7115 L 2.7114900000000004 -2.7115 L 2.7114900000000004 2.7114900000000004 L -2.7115 2.7114900000000004 z" stroke-linecap="round" />
</g>
<g transform="matrix(9.22 0 0 1.2908 25 11.5)" id="Zq6AhqvdJzP8IFovJb17K"  >
<path style="stroke: rgb(241,67,15); stroke-width: 0; stroke-dasharray: none; stroke-linecap: butt; stroke-dashoffset: 0; stroke-linejoin: miter; stroke-miterlimit: 4; fill: rgb(93,93,93); fill-rule: nonzero; opacity: 1;"  transform=" translate(0, 0)" d="M -2.7115 -2.7115 L 2.7114900000000004 -2.7115 L 2.7114900000000004 2.7114900000000004 L -2.7115 2.7114900000000004 z" stroke-linecap="round" />
</g>
<g transform="matrix(9.22 0 0 1.2908 24.9999839 38.499997746)" id="iB7TqfJUZ36ZzEyGhLyTS"  >
<path style="stroke: rgb(241,67,15); stroke-width: 0; stroke-dasharray: none; stroke-linecap: butt; stroke-dashoffset: 0; stroke-linejoin: miter; stroke-miterlimit: 4; fill: rgb(93,93,93); fill-rule: nonzero; opacity: 1;"  transform=" translate(0.000005, 0.000005)" d="M -2.7115 -2.7115 L 2.7114900000000004 -2.7115 L 2.7114900000000004 2.7114900000000004 L -2.7115 2.7114900000000004 z" stroke-linecap="round" />
</g>
<g transform="matrix(0 9.22 -1.2908 0 11.499997746 24.9999839)" id="jEfk5Hlq5FWDWBlld-gKl"  >
<path style="stroke: rgb(241,67,15); stroke-width: 0; stroke-dasharray: none; stroke-linecap: butt; stroke-dashoffset: 0; stroke-linejoin: miter; stroke-miterlimit: 4; fill: rgb(93,93,93); fill-rule: nonzero; opacity: 1;"  transform=" translate(0.000005, 0.000005)" d="M -2.7115 -2.7115 L 2.7114900000000004 -2.7115 L 2.7114900000000004 2.7114900000000004 L -2.7115 2.7114900000000004 z" stroke-linecap="round" />
</g>
<g transform="matrix(0 9.22 -1.2908 0 38.499997746 24.9999839)" id="KrIFKkwVjMFyXVX8jmr22"  >
<path style="stroke: rgb(241,67,15); stroke-width: 0; stroke-dasharray: none; stroke-linecap: butt; stroke-dashoffset: 0; stroke-linejoin: miter; stroke-miterlimit: 4; fill: rgb(93,93,93); fill-rule: nonzero; opacity: 1;"  transform=" translate(0.000005, 0.000005)" d="M -2.7115 -2.7115 L 2.7114900000000004 -2.7115 L 2.7114900000000004 2.7114900000000004 L -2.7115 2.7114900000000004 z" stroke-linecap="round" />
</g>
</svg>
