<?xml version="1.0" encoding="UTF-8" standalone="no" ?>
<!DOCTYPE svg PUBLIC "-//W3C//DTD SVG 1.1//EN" "http://www.w3.org/Graphics/SVG/1.1/DTD/svg11.dtd">
<svg xmlns="http://www.w3.org/2000/svg" xmlns:xlink="http://www.w3.org/1999/xlink" version="1.1" width="9.61" height="67.33" viewBox="0 0 50 350" xml:space="preserve">
<desc>Created with Fabric.js 5.3.0</desc>
<defs>
</defs>
<g transform="matrix(0 2.2696595856 -0.3242370837 0 25.0000004162 175.0000029136)" id="q09-Avy31wuWEqdTOIttz"  >
<path style="stroke: rgb(65,166,79); stroke-width: 0; stroke-dasharray: none; stroke-linecap: butt; stroke-dashoffset: 0; stroke-linejoin: miter; stroke-miterlimit: 4; fill: rgb(188,188,188); fill-rule: nonzero; opacity: 1;"  transform=" translate(-0.000005, -0.000005)" d="M -77.10407 -77.10407 L 77.10408 -77.10407 L 77.10408 77.10408 L -77.10407 77.10408 z" stroke-linecap="round" />
</g>
<g transform="matrix(0 0.082875 -0.5525 0 25.2438777572 27.7561197453)" id="DMwLgXu9q-1CKFdr8TF4o"  >
<path style="stroke: rgb(167,167,224); stroke-width: 0; stroke-dasharray: none; stroke-linecap: butt; stroke-dashoffset: 0; stroke-linejoin: miter; stroke-miterlimit: 4; fill: rgb(176,120,73); fill-rule: nonzero; opacity: 1;"  transform=" translate(0.000005, 0.000005)" d="M -36.1991 -36.1991 L 36.19909 -36.1991 L 36.19909 36.19909 L -36.1991 36.19909 z" stroke-linecap="round" />
</g>
<g transform="matrix(0 0.082875 -0.5525 0 25.2438777485 77.7561197472)" id="bUkwpdQgzhZPS1gHYy4eD"  >
<path style="stroke: rgb(167,167,224); stroke-width: 0; stroke-dasharray: none; stroke-linecap: butt; stroke-dashoffset: 0; stroke-linejoin: miter; stroke-miterlimit: 4; fill: rgb(176,120,73); fill-rule: nonzero; opacity: 1;"  transform=" translate(0.000005, 0.000005)" d="M -36.1991 -36.1991 L 36.19909 -36.1991 L 36.19909 36.19909 L -36.1991 36.19909 z" stroke-linecap="round" />
</g>
<g transform="matrix(0 0.082875 -0.580125 0 25.2438777485 127.7561197472)" id="CejiqkJlYNlwyFU8z_VE-"  >
<path style="stroke: rgb(167,167,224); stroke-width: 0; stroke-dasharray: none; stroke-linecap: butt; stroke-dashoffset: 0; stroke-linejoin: miter; stroke-miterlimit: 4; fill: rgb(176,120,73); fill-rule: nonzero; opacity: 1;"  transform=" translate(0.000005, 0.000005)" d="M -36.1991 -36.1991 L 36.19909 -36.1991 L 36.19909 36.19909 L -36.1991 36.19909 z" stroke-linecap="round" />
</g>
<g transform="matrix(0 0.082875 -0.580125 0 25.2438777588 177.7561197471)" id="lss13UlT0orK65nvW2dfO"  >
<path style="stroke: rgb(167,167,224); stroke-width: 0; stroke-dasharray: none; stroke-linecap: butt; stroke-dashoffset: 0; stroke-linejoin: miter; stroke-miterlimit: 4; fill: rgb(176,120,73); fill-rule: nonzero; opacity: 1;"  transform=" translate(0.000005, 0.000005)" d="M -36.1991 -36.1991 L 36.19909 -36.1991 L 36.19909 36.19909 L -36.1991 36.19909 z" stroke-linecap="round" />
</g>
<g transform="matrix(0 0.082875 -0.580125 0 25.2438777588 227.7561197471)" id="tniPJj2kAucvoJt4c58mn"  >
<path style="stroke: rgb(167,167,224); stroke-width: 0; stroke-dasharray: none; stroke-linecap: butt; stroke-dashoffset: 0; stroke-linejoin: miter; stroke-miterlimit: 4; fill: rgb(176,120,73); fill-rule: nonzero; opacity: 1;"  transform=" translate(0.000005, 0.000005)" d="M -36.1991 -36.1991 L 36.19909 -36.1991 L 36.19909 36.19909 L -36.1991 36.19909 z" stroke-linecap="round" />
</g>
<g transform="matrix(0 0.082875 -0.580125 0 25.2438777588 277.7561197471)" id="ZXUDOth4bGxnkkAt4hMfK"  >
<path style="stroke: rgb(167,167,224); stroke-width: 0; stroke-dasharray: none; stroke-linecap: butt; stroke-dashoffset: 0; stroke-linejoin: miter; stroke-miterlimit: 4; fill: rgb(176,120,73); fill-rule: nonzero; opacity: 1;"  transform=" translate(0.000005, 0.000005)" d="M -36.1991 -36.1991 L 36.19909 -36.1991 L 36.19909 36.19909 L -36.1991 36.19909 z" stroke-linecap="round" />
</g>
<g transform="matrix(0 0.082875 -0.580125 0 25.2438777572 327.756119747)" id="he4raZbYGDPV7v4i8WSBT"  >
<path style="stroke: rgb(167,167,224); stroke-width: 0; stroke-dasharray: none; stroke-linecap: butt; stroke-dashoffset: 0; stroke-linejoin: miter; stroke-miterlimit: 4; fill: rgb(176,120,73); fill-rule: nonzero; opacity: 1;"  transform=" translate(0.000005, 0.000005)" d="M -36.1991 -36.1991 L 36.19909 -36.1991 L 36.19909 36.19909 L -36.1991 36.19909 z" stroke-linecap="round" />
</g>
<g transform="matrix(0 4.834375 -0.0966875 0 11.7438777594 174.7561197453)" id="4YrbRGNcMm0thTQ8DxVQg"  >
<path style="stroke: rgb(15,108,64); stroke-width: 0; stroke-dasharray: none; stroke-linecap: butt; stroke-dashoffset: 0; stroke-linejoin: miter; stroke-miterlimit: 4; fill: rgb(93,93,93); fill-rule: nonzero; opacity: 1;"  transform=" translate(0.000005, 0.000005)" d="M -36.1991 -36.1991 L 36.19909 -36.1991 L 36.19909 36.19909 L -36.1991 36.19909 z" stroke-linecap="round" />
</g>
<g transform="matrix(0 4.8343749976 -0.0966875001 0 38.7438777572 174.7561197453)" id="C9AFBJt1XXatg5GDWzEm5"  >
<path style="stroke: rgb(15,108,64); stroke-width: 0; stroke-dasharray: none; stroke-linecap: butt; stroke-dashoffset: 0; stroke-linejoin: miter; stroke-miterlimit: 4; fill: rgb(93,93,93); fill-rule: nonzero; opacity: 1;"  transform=" translate(0.000005, 0.000005)" d="M -36.1991 -36.1991 L 5.585229999999996 -36.1991 L 36.19909 -36.1991 L 36.19909 36.19909 L -36.1991 36.19909 z" stroke-linecap="round" />
</g>
</svg>
